<?xml version="1.0" encoding="UTF-8" standalone="no"?>
<!DOCTYPE svg PUBLIC "-//W3C//DTD SVG 1.1//EN"
 "http://www.w3.org/Graphics/SVG/1.1/DTD/svg11.dtd">
<!-- Generated by graphviz version 12.0.0 (20240704.0754)
 -->
<!-- Pages: 1 -->
<svg width="280pt" height="237pt"
 viewBox="0.00 0.00 280.47 236.68" xmlns="http://www.w3.org/2000/svg" xmlns:xlink="http://www.w3.org/1999/xlink">
<g id="graph0" class="graph" transform="scale(1 1) rotate(0) translate(4 232.68)">
<polygon fill="white" stroke="none" points="-4,4 -4,-232.68 276.47,-232.68 276.47,4 -4,4"/>
<!-- front -->
<g id="node1" class="node">
<title>front</title>
<polygon fill="lightgray" stroke="black" points="34,-228.68 0,-228.68 0,-209.43 34,-209.43 34,-228.68"/>
<text text-anchor="middle" x="17" y="-216.13" font-family="Times New Roman,serif" font-size="9.00">front</text>
</g>
<!-- left -->
<g id="node3" class="node">
<title>left</title>
<polygon fill="lightblue" stroke="black" points="111,-173.43 83,-173.43 83,-154.18 111,-154.18 111,-173.43"/>
<text text-anchor="middle" x="97" y="-160.88" font-family="Times New Roman,serif" font-size="9.00">left</text>
</g>
<!-- front&#45;&gt;left -->
<g id="edge1" class="edge">
<title>front&#45;&gt;left</title>
<path fill="none" stroke="green" stroke-width="0.15" d="M30.57,-209.02C42.75,-200.92 60.86,-188.87 75.09,-179.39"/>
<polygon fill="green" stroke="green" stroke-width="0.15" points="76.79,-182.46 83.18,-174.01 72.91,-176.64 76.79,-182.46"/>
</g>
<!-- right -->
<g id="node5" class="node">
<title>right</title>
<polygon fill="lightblue" stroke="black" points="157.25,-118.18 124.75,-118.18 124.75,-98.93 157.25,-98.93 157.25,-118.18"/>
<text text-anchor="middle" x="141" y="-105.63" font-family="Times New Roman,serif" font-size="9.00">right</text>
</g>
<!-- front&#45;&gt;right -->
<g id="edge2" class="edge">
<title>front&#45;&gt;right</title>
<path fill="none" stroke="red" stroke-width="0.14" d="M23.75,-209.15C33.82,-196.17 53.8,-171.72 74,-154.18 87.12,-142.79 103.3,-131.94 116.47,-123.79"/>
<polygon fill="red" stroke="red" stroke-width="0.14" points="118.11,-126.89 124.85,-118.72 114.48,-120.9 118.11,-126.89"/>
</g>
<!-- forward -->
<g id="node7" class="node">
<title>forward</title>
<ellipse fill="lightblue" stroke="black" cx="119" cy="-31.47" rx="31.47" ry="31.47"/>
<text text-anchor="middle" x="119" y="-28.54" font-family="Times New Roman,serif" font-size="9.00">forward</text>
</g>
<!-- front&#45;&gt;forward -->
<g id="edge3" class="edge">
<title>front&#45;&gt;forward</title>
<path fill="none" stroke="red" stroke-width="0.15" stroke-dasharray="1,5" d="M21.48,-208.99C31.43,-188.94 56.32,-139.41 79,-98.93 84.81,-88.57 91.36,-77.47 97.45,-67.35"/>
<polygon fill="red" stroke="red" stroke-width="0.15" points="100.35,-69.33 102.54,-58.96 94.36,-65.7 100.35,-69.33"/>
</g>
<!-- front&#45;left -->
<g id="node2" class="node">
<title>front&#45;left</title>
<polygon fill="lightgray" stroke="black" points="121.5,-228.68 72.5,-228.68 72.5,-209.43 121.5,-209.43 121.5,-228.68"/>
<text text-anchor="middle" x="97" y="-216.13" font-family="Times New Roman,serif" font-size="9.00">front&#45;left</text>
</g>
<!-- front&#45;left&#45;&gt;left -->
<g id="edge4" class="edge">
<title>front&#45;left&#45;&gt;left</title>
<path fill="none" stroke="red" stroke-width="0.34" stroke-dasharray="1,5" d="M97,-209.26C97,-202.45 97,-192.74 97,-184.13"/>
<polygon fill="red" stroke="red" stroke-width="0.34" points="100.5,-184.3 97,-174.3 93.5,-184.3 100.5,-184.3"/>
</g>
<!-- front&#45;left&#45;&gt;right -->
<g id="edge5" class="edge">
<title>front&#45;left&#45;&gt;right</title>
<path fill="none" stroke="green" stroke-width="1.08" d="M109.14,-208.93C118.89,-200.82 131.93,-188 138,-173.43 143.7,-159.75 144.27,-142.97 143.51,-130.04"/>
<polygon fill="green" stroke="green" stroke-width="1.08" points="147.02,-129.91 142.6,-120.28 140.05,-130.56 147.02,-129.91"/>
</g>
<!-- front&#45;left&#45;&gt;forward -->
<g id="edge6" class="edge">
<title>front&#45;left&#45;&gt;forward</title>
<path fill="none" stroke="green" stroke-width="0.19" stroke-dasharray="1,5" d="M90.68,-209C85.04,-200.33 77.2,-186.65 74,-173.43 71.98,-165.12 72.49,-162.6 74,-154.18 79.27,-124.75 91.17,-93.12 101.41,-69.49"/>
<polygon fill="green" stroke="green" stroke-width="0.19" points="104.55,-71.02 105.41,-60.46 98.15,-68.19 104.55,-71.02"/>
</g>
<!-- left&#45;&gt;left -->
<g id="edge7" class="edge">
<title>left&#45;&gt;left</title>
<path fill="none" stroke="red" stroke-width="0.49" d="M111.48,-173.44C120.46,-175.76 129,-172.55 129,-163.81 129,-158.75 126.14,-155.55 122,-154.19"/>
<polygon fill="red" stroke="red" stroke-width="0.49" points="122.22,-150.69 112.21,-154.18 122.21,-157.69 122.22,-150.69"/>
</g>
<!-- left&#45;&gt;right -->
<g id="edge8" class="edge">
<title>left&#45;&gt;right</title>
<path fill="none" stroke="red" stroke-width="0.17" d="M99.1,-154.01C103.79,-146.35 112.77,-135.04 121.35,-125.75"/>
<polygon fill="red" stroke="red" stroke-width="0.17" points="123.72,-128.34 128.19,-118.73 118.7,-123.45 123.72,-128.34"/>
</g>
<!-- left&#45;&gt;forward -->
<g id="edge9" class="edge">
<title>left&#45;&gt;forward</title>
<path fill="none" stroke="green" stroke-width="0.52" d="M98.51,-153.85C101.28,-137.48 107.3,-101.79 112.1,-73.33"/>
<polygon fill="green" stroke="green" stroke-width="0.52" points="115.53,-74.05 113.74,-63.61 108.63,-72.89 115.53,-74.05"/>
</g>
<!-- front&#45;right -->
<g id="node4" class="node">
<title>front&#45;right</title>
<polygon fill="lightgray" stroke="black" points="221.75,-228.68 168.25,-228.68 168.25,-209.43 221.75,-209.43 221.75,-228.68"/>
<text text-anchor="middle" x="195" y="-216.13" font-family="Times New Roman,serif" font-size="9.00">front&#45;right</text>
</g>
<!-- front&#45;right&#45;&gt;left -->
<g id="edge10" class="edge">
<title>front&#45;right&#45;&gt;left</title>
<path fill="none" stroke="green" stroke-width="0.46" d="M178.38,-209.02C162.53,-200.41 138.49,-187.35 120.65,-177.66"/>
<polygon fill="green" stroke="green" stroke-width="0.46" points="122.54,-174.7 112.08,-173 119.2,-180.85 122.54,-174.7"/>
</g>
<!-- front&#45;right&#45;&gt;right -->
<g id="edge11" class="edge">
<title>front&#45;right&#45;&gt;right</title>
<path fill="none" stroke="red" stroke-width="0.53" d="M190.58,-209.18C181.8,-191.53 161.99,-151.73 150.24,-128.13"/>
<polygon fill="red" stroke="red" stroke-width="0.53" points="153.43,-126.67 145.84,-119.28 147.16,-129.79 153.43,-126.67"/>
</g>
<!-- front&#45;right&#45;&gt;forward -->
<g id="edge12" class="edge">
<title>front&#45;right&#45;&gt;forward</title>
<path fill="none" stroke="red" stroke-width="0.4" stroke-dasharray="1,5" d="M221.62,-209.12C247.61,-198.73 281.68,-179.69 270,-154.18 247.45,-104.93 193.62,-69.52 156.72,-50"/>
<polygon fill="red" stroke="red" stroke-width="0.4" points="158.77,-47.11 148.28,-45.66 155.57,-53.34 158.77,-47.11"/>
</g>
<!-- right&#45;&gt;left -->
<g id="edge13" class="edge">
<title>right&#45;&gt;left</title>
<path fill="none" stroke="red" stroke-width="0.16" stroke-dasharray="1,5" d="M138.78,-118.54C134.02,-126.26 125.01,-137.58 116.43,-146.84"/>
<polygon fill="red" stroke="red" stroke-width="0.16" points="114.09,-144.24 109.6,-153.84 119.1,-149.13 114.09,-144.24"/>
</g>
<!-- right&#45;&gt;right -->
<g id="edge14" class="edge">
<title>right&#45;&gt;right</title>
<path fill="none" stroke="red" stroke-width="0.51" d="M157.56,-118.42C166.77,-120.26 175.25,-116.97 175.25,-108.56 175.25,-103.69 172.42,-100.54 168.25,-99.1"/>
<polygon fill="red" stroke="red" stroke-width="0.51" points="168.46,-95.61 158.34,-98.72 168.2,-102.6 168.46,-95.61"/>
</g>
<!-- right&#45;&gt;forward -->
<g id="edge15" class="edge">
<title>right&#45;&gt;forward</title>
<path fill="none" stroke="green" stroke-width="0.29" stroke-dasharray="1,5" d="M138.39,-98.65C136.41,-91.89 133.54,-82.08 130.6,-72.08"/>
<polygon fill="green" stroke="green" stroke-width="0.29" points="133.98,-71.14 127.81,-62.53 127.26,-73.11 133.98,-71.14"/>
</g>
<!-- speed -->
<g id="node6" class="node">
<title>speed</title>
<polygon fill="lightgray" stroke="black" points="260.5,-173.43 223.5,-173.43 223.5,-154.18 260.5,-154.18 260.5,-173.43"/>
<text text-anchor="middle" x="242" y="-160.88" font-family="Times New Roman,serif" font-size="9.00">speed</text>
</g>
<!-- speed&#45;&gt;right -->
<g id="edge16" class="edge">
<title>speed&#45;&gt;right</title>
<path fill="none" stroke="red" stroke-width="0.35" stroke-dasharray="1,5" d="M224.87,-153.77C208.93,-145.37 184.98,-132.74 166.74,-123.13"/>
<polygon fill="red" stroke="red" stroke-width="0.35" points="168.5,-120.1 158.02,-118.53 165.23,-126.29 168.5,-120.1"/>
</g>
<!-- speed&#45;&gt;forward -->
<g id="edge17" class="edge">
<title>speed&#45;&gt;forward</title>
<path fill="none" stroke="red" stroke-width="0.7" d="M234.22,-154.04C223.18,-141.64 202.29,-118.34 184,-98.93 172.49,-86.72 159.6,-73.46 148.36,-62.02"/>
<polygon fill="red" stroke="red" stroke-width="0.7" points="151.13,-59.84 141.62,-55.18 146.14,-64.76 151.13,-59.84"/>
</g>
</g>
</svg>
